<svg xmlns="http://www.w3.org/2000/svg" xmlns:xlink="http://www.w3.org/1999/xlink" width="1387.122" height="869.949" preserveAspectRatio="xMidYMid" version="1.1" viewBox="31.592 14.982 1040.341 652.462" xml:space="preserve"><g><g fill="none" fill-rule="evenodd" stroke="#000" stroke-linecap="round" stroke-linejoin="round" stroke-miterlimit="3" stroke-width="1" font-style="normal" font-weight="normal" letter-spacing="normal"><g><g font-family="ArialUnicode" font-size="10" transform="matrix(1 0 0 -1 0 671) matrix(0.75 0 0 0.75 0 671.75) matrix(0.959795 0 0 -0.958888 0 0)"><path fill="#DFDFDF" stroke="none" d="M58 616C58 611 58 611 63 611H199C204 611 204 611 204 616V806C204 811 204 811 199 811H63C58 811 58 811 58 806V616"/><path fill="#FFF" stroke="none" d="M55 613C55 608 55 608 60 608H196C201 608 201 608 201 613V803C201 808 201 808 196 808H60C55 808 55 808 55 803V613"/><path d="M55 613C55 608 55 608 60 608H196C201 608 201 608 201 613V803C201 808 201 808 196 808H60C55 808 55 808 55 803V613m0 0C55 608 55 608 60 608H196C201 608 201 608 201 613V803C201 808 201 808 196 808H60C55 808 55 808 55 803V613"/><rect width="146" height="200" x="55" y="608"/><text fill="#000" stroke="none" transform="matrix(1 0 0 1 97 611)"><tspan x="0" y="9" dx="0">«mandatory»</tspan></text><text fill="#000" stroke="none" font-weight="bold" transform="matrix(1 0 0 1 96 624)"><tspan x="0" y="9" dx="0">dcat:Catalog</tspan></text><path d="M55 641H201"/><text fill="#000" stroke="none" transform="matrix(1 0 0 1 68 649)"><tspan x="0" y="9" dx="0">«mandatory»</tspan></text><text fill="#2F4F4F" stroke="none" transform="matrix(1 0 0 1 60 662)"><tspan x="0" y="9" dx="0">dct:description [1..*]</tspan></text><text fill="#2F4F4F" stroke="none" transform="matrix(1 0 0 1 60 675)"><tspan x="0" y="9" dx="0">dct:title [1..*]</tspan></text><text fill="#000" stroke="none" transform="matrix(1 0 0 1 68 692)"><tspan x="0" y="9" dx="0">«recommended»</tspan></text><text fill="#2F4F4F" stroke="none" transform="matrix(1 0 0 1 60 705)"><tspan x="0" y="9" dx="0">dct:issued [0..1]</tspan></text><text fill="#2F4F4F" stroke="none" transform="matrix(1 0 0 1 60 718)"><tspan x="0" y="9" dx="0">dct:modified [0..1]</tspan></text><text fill="red" stroke="none" font-style="italic" transform="matrix(1 0 0 1 193 789)"><tspan x="0" y="8" dx="0">A</tspan></text><path fill="#DFDFDF" stroke="none" d="M408 423C408 418 408 418 413 418H548C553 418 553 418 553 423V566C553 571 553 571 548 571H413C408 571 408 571 408 566V423"/><path fill="#FFF" stroke="none" d="M405 420C405 415 405 415 410 415H545C550 415 550 415 550 420V563C550 568 550 568 545 568H410C405 568 405 568 405 563V420"/><path d="M405 420C405 415 405 415 410 415H545C550 415 550 415 550 420V563C550 568 550 568 545 568H410C405 568 405 568 405 563V420m0 0C405 415 405 415 410 415H545C550 415 550 415 550 420V563C550 568 550 568 545 568H410C405 568 405 568 405 563V420"/><rect width="145" height="153" x="405" y="415"/><text fill="#000" stroke="none" transform="matrix(1 0 0 1 452 418)"><tspan x="0" y="9" dx="0">«optional»</tspan></text><text fill="#000" stroke="none" font-weight="bold" transform="matrix(1 0 0 1 428 431)"><tspan x="0" y="9" dx="0">dcat:CatalogRecord</tspan></text><path d="M405 448H550"/><text fill="#000" stroke="none" transform="matrix(1 0 0 1 418 456)"><tspan x="0" y="9" dx="0">«optional»</tspan></text><text fill="#2F4F4F" stroke="none" transform="matrix(1 0 0 1 410 469)"><tspan x="0" y="9" dx="0">dct:description [0..1]</tspan></text><text fill="#2F4F4F" stroke="none" transform="matrix(1 0 0 1 410 482)"><tspan x="0" y="9" dx="0">dct:title [0..*]</tspan></text><text fill="#000" stroke="none" transform="matrix(1 0 0 1 418 499)"><tspan x="0" y="9" dx="0">«recommended»</tspan></text><text fill="#2F4F4F" stroke="none" transform="matrix(1 0 0 1 410 512)"><tspan x="0" y="9" dx="0">dct:issued [0..1]</tspan></text><text fill="#000" stroke="none" transform="matrix(1 0 0 1 418 529)"><tspan x="0" y="9" dx="0">«mandatory»</tspan></text><text fill="#2F4F4F" stroke="none" transform="matrix(1 0 0 1 410 542)"><tspan x="0" y="9" dx="0">dct:modified</tspan></text><path fill="#DFDFDF" stroke="none" d="M237 281C237 276 237 276 242 276H351C356 276 356 276 356 281v65C356 351 356 351 351 351H242C237 351 237 351 237 346V281"/><path fill="#FFF" stroke="none" d="M234 278C234 273 234 273 239 273H348C353 273 353 273 353 278v65C353 348 353 348 348 348H239C234 348 234 348 234 343V278"/><path d="M234 278C234 273 234 273 239 273H348C353 273 353 273 353 278v65C353 348 353 348 348 348H239C234 348 234 348 234 343V278m0 0C234 273 234 273 239 273H348C353 273 353 273 353 278v65C353 348 353 348 348 348H239C234 348 234 348 234 343V278"/><rect width="119" height="75" x="234" y="273"/><text fill="#000" stroke="none" transform="matrix(1 0 0 1 263 276)"><tspan x="0" y="9" dx="0">«mandatory»</tspan></text><text fill="#000" stroke="none" font-weight="bold" transform="matrix(1 0 0 1 267 289)"><tspan x="0" y="9" dx="0">foaf: Agent</tspan></text><path d="M234 306H353"/><text fill="#000" stroke="none" transform="matrix(1 0 0 1 247 314)"><tspan x="0" y="9" dx="0">«mandatory»</tspan></text><text fill="#2F4F4F" stroke="none" transform="matrix(1 0 0 1 239 327)"><tspan x="0" y="9" dx="0">foaf:name [1..*]</tspan></text><path fill="#DFDFDF" stroke="none" d="M81 246C81 241 81 241 86 241H208C213 241 213 241 213 246v65C213 316 213 316 208 316H86C81 316 81 316 81 311V246"/><path fill="#FFF" stroke="none" d="M78 243C78 238 78 238 83 238H205C210 238 210 238 210 243v65C210 313 210 313 205 313H83C78 313 78 313 78 308V243"/><path d="M78 243C78 238 78 238 83 238H205C210 238 210 238 210 243v65C210 313 210 313 205 313H83C78 313 78 313 78 308V243m0 0C78 238 78 238 83 238H205C210 238 210 238 210 243v65C210 313 210 313 205 313H83C78 313 78 313 78 308V243"/><rect width="132" height="75" x="78" y="238"/><text fill="#000" stroke="none" transform="matrix(1 0 0 1 104 241)"><tspan x="0" y="9" dx="0">«recommended»</tspan></text><text fill="#000" stroke="none" font-weight="bold" transform="matrix(1 0 0 1 89 254)"><tspan x="0" y="9" dx="0">skos:ConceptScheme</tspan></text><path d="M78 271H210"/><text fill="#000" stroke="none" transform="matrix(1 0 0 1 91 279)"><tspan x="0" y="9" dx="0">«mandatory»</tspan></text><text fill="#2F4F4F" stroke="none" transform="matrix(1 0 0 1 83 292)"><tspan x="0" y="9" dx="0">dct:title [1..*]</tspan></text><path fill="#DFDFDF" stroke="none" d="M63 78C63 73 63 73 68 73H189C194 73 194 73 194 78v82C194 165 194 165 189 165H68C63 165 63 165 63 160V78"/><path fill="#FFF" stroke="none" d="M60 75C60 70 60 70 65 70H186C191 70 191 70 191 75v82C191 162 191 162 186 162H65C60 162 60 162 60 157V75"/><path d="M60 75C60 70 60 70 65 70H186C191 70 191 70 191 75v82C191 162 191 162 186 162H65C60 162 60 162 60 157V75m0 0C60 70 60 70 65 70H186C191 70 191 70 191 75v82C191 162 191 162 186 162H65C60 162 60 162 60 157V75"/><rect width="131" height="92" x="60" y="70"/><text fill="#000" stroke="none" transform="matrix(1 0 0 1 86 73)"><tspan x="0" y="9" dx="0">«recommended»</tspan></text><text fill="#000" stroke="none" font-weight="bold" transform="matrix(1 0 0 1 91 86)"><tspan x="0" y="9" dx="0">skos:Concept</tspan></text><path d="M60 103H191"/><text fill="#000" stroke="none" transform="matrix(1 0 0 1 73 111)"><tspan x="0" y="9" dx="0">«mandatory»</tspan></text><text fill="#2F4F4F" stroke="none" transform="matrix(1 0 0 1 65 124)"><tspan x="0" y="9" dx="0">skos:prefLabel [1..*]</tspan></text><path fill="#DFDFDF" stroke="none" d="M742 291C742 286 742 286 747 286H895C900 286 900 286 900 291V641C900 646 900 646 895 646H747C742 646 742 646 742 641V291"/><path fill="#FFF" stroke="none" d="M739 288C739 283 739 283 744 283H892C897 283 897 283 897 288V638C897 643 897 643 892 643H744C739 643 739 643 739 638V288"/><path d="M739 288C739 283 739 283 744 283H892C897 283 897 283 897 288V638C897 643 897 643 892 643H744C739 643 739 643 739 638V288m0 0C739 283 739 283 744 283H892C897 283 897 283 897 288V638C897 643 897 643 892 643H744C739 643 739 643 739 638V288"/><rect width="158" height="360" x="739" y="283"/><text fill="#000" stroke="none" transform="matrix(1 0 0 1 787 286)"><tspan x="0" y="9" dx="0">«mandatory»</tspan></text><text fill="#000" stroke="none" font-weight="bold" transform="matrix(1 0 0 1 786 299)"><tspan x="0" y="9" dx="0">dcat:Dataset</tspan></text><path d="M739 316H897"/><text fill="#000" stroke="none" transform="matrix(1 0 0 1 752 324)"><tspan x="0" y="9" dx="0">«optional»</tspan></text><text fill="#2F4F4F" stroke="none" transform="matrix(1 0 0 1 744 337)"><tspan x="0" y="9" dx="0">adms:versionNotes [0..*]</tspan></text><text fill="#2F4F4F" stroke="none" transform="matrix(1 0 0 1 744 350)"><tspan x="0" y="9" dx="0">dct:identifier [1..*]</tspan></text><text fill="#2F4F4F" stroke="none" transform="matrix(1 0 0 1 744 363)"><tspan x="0" y="9" dx="0">dct:issued [0..1]</tspan></text><text fill="#2F4F4F" stroke="none" transform="matrix(1 0 0 1 744 376)"><tspan x="0" y="9" dx="0">dct:modified [0..1]</tspan></text><text fill="#2F4F4F" stroke="none" transform="matrix(1 0 0 1 744 389)"><tspan x="0" y="9" dx="0">owl:versionInfo [0..1]</tspan></text><text fill="#000" stroke="none" transform="matrix(1 0 0 1 752 406)"><tspan x="0" y="9" dx="0">«mandatory»</tspan></text><text fill="#2F4F4F" stroke="none" transform="matrix(1 0 0 1 744 419)"><tspan x="0" y="9" dx="0">dct:description [1..*]</tspan></text><text fill="#2F4F4F" stroke="none" transform="matrix(1 0 0 1 744 432)"><tspan x="0" y="9" dx="0">dct:title [1..*]</tspan></text><text fill="red" stroke="none" font-style="italic" transform="matrix(1 0 0 1 889 624)"><tspan x="0" y="8" dx="0">A</tspan></text><path fill="#DFDFDF" stroke="none" d="M1081 111C1081 106 1081 106 1086 106h125C1216 106 1216 106 1216 111V347C1216 352 1216 352 1211 352H1086C1081 352 1081 352 1081 347V111"/><path fill="#FFF" stroke="none" d="M1078 108C1078 103 1078 103 1083 103h125C1213 103 1213 103 1213 108V344C1213 349 1213 349 1208 349H1083C1078 349 1078 349 1078 344V108"/><path d="M1078 108C1078 103 1078 103 1083 103h125C1213 103 1213 103 1213 108V344C1213 349 1213 349 1208 349H1083C1078 349 1078 349 1078 344V108m0 0C1078 103 1078 103 1083 103h125C1213 103 1213 103 1213 108V344C1213 349 1213 349 1208 349H1083C1078 349 1078 349 1078 344V108"/><rect width="135" height="246" x="1078" y="103"/><text fill="#000" stroke="none" transform="matrix(1 0 0 1 1106 106)"><tspan x="0" y="9" dx="0">«recommended»</tspan></text><text fill="#000" stroke="none" font-weight="bold" transform="matrix(1 0 0 1 1104 119)"><tspan x="0" y="9" dx="0">dcat:Distribution</tspan></text><path d="M1078 136h135"/><text fill="#000" stroke="none" transform="matrix(1 0 0 1 1091 144)"><tspan x="0" y="9" dx="0">«optional»</tspan></text><text fill="#2F4F4F" stroke="none" transform="matrix(1 0 0 1 1083 157)"><tspan x="0" y="9" dx="0">dcat:byteSize [0..1]</tspan></text><text fill="#2F4F4F" stroke="none" transform="matrix(1 0 0 1 1083 170)"><tspan x="0" y="9" dx="0">dct:issued [0..1]</tspan></text><text fill="#2F4F4F" stroke="none" transform="matrix(1 0 0 1 1083 183)"><tspan x="0" y="9" dx="0">dct:modified [0..1]</tspan></text><text fill="#2F4F4F" stroke="none" transform="matrix(1 0 0 1 1083 196)"><tspan x="0" y="9" dx="0">dct:title [0..*]</tspan></text><text fill="#000" stroke="none" transform="matrix(1 0 0 1 1091 213)"><tspan x="0" y="9" dx="0">«recommended»</tspan></text><text fill="#2F4F4F" stroke="none" transform="matrix(1 0 0 1 1083 226)"><tspan x="0" y="9" dx="0">dct:description [0..*]</tspan></text><path fill="#DFDFDF" stroke="none" d="M1327 119C1327 114 1327 114 1332 114h125C1462 114 1462 114 1462 119v36C1462 160 1462 160 1457 160H1332C1327 160 1327 160 1327 155V119"/><path fill="#FFF" stroke="none" d="M1324 116C1324 111 1324 111 1329 111h125C1459 111 1459 111 1459 116v36C1459 157 1459 157 1454 157H1329C1324 157 1324 157 1324 152V116"/><path d="M1324 116C1324 111 1324 111 1329 111h125C1459 111 1459 111 1459 116v36C1459 157 1459 157 1454 157H1329C1324 157 1324 157 1324 152V116m0 0C1324 111 1324 111 1329 111h125C1459 111 1459 111 1459 116v36C1459 157 1459 157 1454 157H1329C1324 157 1324 157 1324 152V116"/><rect width="135" height="46" x="1324" y="111"/><text fill="#000" stroke="none" transform="matrix(1 0 0 1 1352 114)"><tspan x="0" y="9" dx="0">«recommended»</tspan></text><text fill="#000" stroke="none" font-weight="bold" transform="matrix(1 0 0 1 1337 127)"><tspan x="0" y="9" dx="0">dct:LicenseDocument</tspan></text><path fill="#DFDFDF" stroke="none" d="M570 804C570 799 570 799 575 799h79C659 799 659 799 659 804v59C659 868 659 868 654 868H575C570 868 570 868 570 863V804"/><path fill="#FFF" stroke="none" d="M567 801C567 796 567 796 572 796h79C656 796 656 796 656 801v59C656 865 656 865 651 865H572C567 865 567 865 567 860V801"/><path d="M567 801C567 796 567 796 572 796h79C656 796 656 796 656 801v59C656 865 656 865 651 865H572C567 865 567 865 567 860V801m0 0C567 796 567 796 572 796h79C656 796 656 796 656 801v59C656 865 656 865 651 865H572C567 865 567 865 567 860V801"/><rect width="89" height="69" x="567" y="796"/><text fill="#000" stroke="none" transform="matrix(1 0 0 1 586 799)"><tspan x="0" y="9" dx="0">«optional»</tspan></text><text fill="#000" stroke="none" font-weight="bold" transform="matrix(1 0 0 1 575 812)"><tspan x="0" y="9" dx="0">foaf:Document</tspan></text><path fill="#DFDFDF" stroke="none" d="M693 808C693 803 693 803 698 803h79C782 803 782 803 782 808v59C782 872 782 872 777 872H698C693 872 693 872 693 867V808"/><path fill="#FFF" stroke="none" d="M690 805C690 800 690 800 695 800h79C779 800 779 800 779 805v59C779 869 779 869 774 869H695C690 869 690 869 690 864V805"/><path d="M690 805C690 800 690 800 695 800h79C779 800 779 800 779 805v59C779 869 779 869 774 869H695C690 869 690 869 690 864V805m0 0C690 800 690 800 695 800h79C779 800 779 800 779 805v59C779 869 779 869 774 869H695C690 869 690 869 690 864V805"/><rect width="89" height="69" x="690" y="800"/><text fill="#000" stroke="none" transform="matrix(1 0 0 1 709 803)"><tspan x="0" y="9" dx="0">«optional»</tspan></text><text fill="#000" stroke="none" font-weight="bold" transform="matrix(1 0 0 1 699 816)"><tspan x="0" y="9" dx="0">dct:Frequency</tspan></text><path fill="#DFDFDF" stroke="none" d="M800 809C800 804 800 804 805 804h90C900 804 900 804 900 809v59C900 873 900 873 895 873H805C800 873 800 873 800 868V809"/><path fill="#FFF" stroke="none" d="M797 806C797 801 797 801 802 801h90C897 801 897 801 897 806v59C897 870 897 870 892 870H802C797 870 797 870 797 865V806"/><path d="M797 806C797 801 797 801 802 801h90C897 801 897 801 897 806v59C897 870 897 870 892 870H802C797 870 797 870 797 865V806m0 0C797 801 797 801 802 801h90C897 801 897 801 897 806v59C897 870 897 870 892 870H802C797 870 797 870 797 865V806"/><rect width="100" height="69" x="797" y="801"/><text fill="#000" stroke="none" transform="matrix(1 0 0 1 822 804)"><tspan x="0" y="9" dx="0">«optional»</tspan></text><text fill="#000" stroke="none" font-weight="bold" transform="matrix(1 0 0 1 809 817)"><tspan x="0" y="9" dx="0">adms:Identifier</tspan></text><path d="M797 834H897"/><text fill="#000" stroke="none" transform="matrix(1 0 0 1 810 842)"><tspan x="0" y="9" dx="0">«mandatory»</tspan></text><text fill="#2F4F4F" stroke="none" transform="matrix(1 0 0 1 802 855)"><tspan x="0" y="9" dx="0">skos:notation [0..1]</tspan></text><path fill="#DFDFDF" stroke="none" d="M483 159C483 154 483 154 488 154h99C592 154 592 154 592 159v59C592 223 592 223 587 223H488C483 223 483 223 483 218V159"/><path fill="#FFF" stroke="none" d="M480 156C480 151 480 151 485 151h99C589 151 589 151 589 156v59C589 220 589 220 584 220H485C480 220 480 220 480 215V156"/><path d="M480 156C480 151 480 151 485 151h99C589 151 589 151 589 156v59C589 220 589 220 584 220H485C480 220 480 220 480 215V156m0 0C480 151 480 151 485 151h99C589 151 589 151 589 156v59C589 220 589 220 584 220H485C480 220 480 220 480 215V156"/><rect width="109" height="69" x="480" y="151"/><text fill="#000" stroke="none" transform="matrix(1 0 0 1 509 154)"><tspan x="0" y="9" dx="0">«optional»</tspan></text><text fill="#000" stroke="none" font-weight="bold" transform="matrix(1 0 0 1 482 167)"><tspan x="0" y="9" dx="0">dct:LinguisticSystem</tspan></text><path fill="#DFDFDF" stroke="none" d="M829 179C829 174 829 174 834 174h79C918 174 918 174 918 179v59C918 243 918 243 913 243H834C829 243 829 243 829 238V179"/><path fill="#FFF" stroke="none" d="M826 176C826 171 826 171 831 171h79C915 171 915 171 915 176v59C915 240 915 240 910 240H831C826 240 826 240 826 235V176"/><path d="M826 176C826 171 826 171 831 171h79C915 171 915 171 915 176v59C915 240 915 240 910 240H831C826 240 826 240 826 235V176m0 0C826 171 826 171 831 171h79C915 171 915 171 915 176v59C915 240 915 240 910 240H831C826 240 826 240 826 235V176"/><rect width="89" height="69" x="826" y="171"/><text fill="#000" stroke="none" transform="matrix(1 0 0 1 840 174)"><tspan x="0" y="9" dx="0">«mandatory»</tspan></text><text fill="#000" stroke="none" font-weight="bold" transform="matrix(1 0 0 1 835 187)"><tspan x="0" y="9" dx="0">rdfs:Resource</tspan></text><path fill="#DFDFDF" stroke="none" d="M1006 425C1006 420 1006 420 1011 420h79C1095 420 1095 420 1095 425v59C1095 489 1095 489 1090 489h-79C1006 489 1006 489 1006 484V425"/><path fill="#FFF" stroke="none" d="M1003 422C1003 417 1003 417 1008 417h79C1092 417 1092 417 1092 422v59C1092 486 1092 486 1087 486h-79C1003 486 1003 486 1003 481V422"/><path d="M1003 422C1003 417 1003 417 1008 417h79C1092 417 1092 417 1092 422v59C1092 486 1092 486 1087 486h-79C1003 486 1003 486 1003 481V422m0 0C1003 417 1003 417 1008 417h79C1092 417 1092 417 1092 422v59C1092 486 1092 486 1087 486h-79C1003 486 1003 486 1003 481V422"/><rect width="89" height="69" x="1003" y="417"/><text fill="#000" stroke="none" transform="matrix(1 0 0 1 1017 420)"><tspan x="0" y="9" dx="0">«mandatory»</tspan></text><text fill="#000" stroke="none" font-weight="bold" transform="matrix(1 0 0 1 1020 433)"><tspan x="0" y="9" dx="0">rdfs:Literal</tspan></text><path fill="#DFDFDF" stroke="none" d="M408 749C408 744 408 744 413 744h79C497 744 497 744 497 749v59C497 813 497 813 492 813H413C408 813 408 813 408 808V749"/><path fill="#FFF" stroke="none" d="M405 746C405 741 405 741 410 741h79C494 741 494 741 494 746v59C494 810 494 810 489 810H410C405 810 405 810 405 805V746"/><path d="M405 746C405 741 405 741 410 741h79C494 741 494 741 494 746v59C494 810 494 810 489 810H410C405 810 405 810 405 805V746m0 0C405 741 405 741 410 741h79C494 741 494 741 494 746v59C494 810 494 810 489 810H410C405 810 405 810 405 805V746"/><rect width="89" height="69" x="405" y="741"/><text fill="#000" stroke="none" transform="matrix(1 0 0 1 424 744)"><tspan x="0" y="9" dx="0">«optional»</tspan></text><text fill="#000" stroke="none" font-weight="bold" transform="matrix(1 0 0 1 418 757)"><tspan x="0" y="9" dx="0">dct:Location</tspan></text><path fill="#DFDFDF" stroke="none" d="M1300 194C1300 189 1300 189 1305 189h136C1446 189 1446 189 1446 194v45C1446 244 1446 244 1441 244H1305C1300 244 1300 244 1300 239V194"/><path fill="#FFF" stroke="none" d="M1297 191C1297 186 1297 186 1302 186h136C1443 186 1443 186 1443 191v45C1443 241 1443 241 1438 241H1302C1297 241 1297 241 1297 236V191"/><path d="M1297 191C1297 186 1297 186 1302 186h136C1443 186 1443 186 1443 191v45C1443 241 1443 241 1438 241H1302C1297 241 1297 241 1297 236V191m0 0C1297 186 1297 186 1302 186h136C1443 186 1443 186 1443 191v45C1443 241 1443 241 1438 241H1302C1297 241 1297 241 1297 236V191"/><rect width="146" height="55" x="1297" y="186"/><text fill="#000" stroke="none" transform="matrix(1 0 0 1 1345 189)"><tspan x="0" y="9" dx="0">«optional»</tspan></text><text fill="#000" stroke="none" font-weight="bold" transform="matrix(1 0 0 1 1311 202)"><tspan x="0" y="9" dx="0">dct:MediaTypeOrExtent</tspan></text><path fill="#DFDFDF" stroke="none" d="M1013 789C1013 784 1013 784 1018 784h152C1175 784 1175 784 1175 789v78C1175 872 1175 872 1170 872H1018C1013 872 1013 872 1013 867V789"/><path fill="#FFF" stroke="none" d="M1010 786C1010 781 1010 781 1015 781h152C1172 781 1172 781 1172 786v78C1172 869 1172 869 1167 869H1015C1010 869 1010 869 1010 864V786"/><path d="M1010 786C1010 781 1010 781 1015 781h152C1172 781 1172 781 1172 786v78C1172 869 1172 869 1167 869H1015C1010 869 1010 869 1010 864V786m0 0C1010 781 1010 781 1015 781h152C1172 781 1172 781 1172 786v78C1172 869 1172 869 1167 869H1015C1010 869 1010 869 1010 864V786"/><rect width="162" height="88" x="1010" y="781"/><text fill="#000" stroke="none" transform="matrix(1 0 0 1 1066 784)"><tspan x="0" y="9" dx="0">«optional»</tspan></text><text fill="#000" stroke="none" font-weight="bold" transform="matrix(1 0 0 1 1047 797)"><tspan x="0" y="9" dx="0">dct:PeriodOfTime</tspan></text><path d="M1010 814h162"/><text fill="#000" stroke="none" transform="matrix(1 0 0 1 1023 822)"><tspan x="0" y="9" dx="0">«optional»</tspan></text><text fill="#2F4F4F" stroke="none" transform="matrix(1 0 0 1 1015 835)"><tspan x="0" y="9" dx="0">schema:endDate [0..1]</tspan></text><text fill="#2F4F4F" stroke="none" transform="matrix(1 0 0 1 1015 848)"><tspan x="0" y="9" dx="0">schema:startDate [0..1]</tspan></text><path fill="#DFDFDF" stroke="none" d="M1110 587C1110 582 1110 582 1115 582h124C1244 582 1244 582 1244 587v32C1244 624 1244 624 1239 624H1115C1110 624 1110 624 1110 619V587"/><path fill="#FFF" stroke="none" d="M1107 584C1107 579 1107 579 1112 579h124C1241 579 1241 579 1241 584v32C1241 621 1241 621 1236 621H1112C1107 621 1107 621 1107 616V584"/><path d="M1107 584C1107 579 1107 579 1112 579h124C1241 579 1241 579 1241 584v32C1241 621 1241 621 1236 621H1112C1107 621 1107 621 1107 616V584m0 0C1107 579 1107 579 1112 579h124C1241 579 1241 579 1241 584v32C1241 621 1241 621 1236 621H1112C1107 621 1107 621 1107 616V584"/><rect width="134" height="42" x="1107" y="579"/><text fill="#000" stroke="none" transform="matrix(1 0 0 1 1149 582)"><tspan x="0" y="9" dx="0">«optional»</tspan></text><text fill="#000" stroke="none" font-weight="bold" transform="matrix(1 0 0 1 1123 595)"><tspan x="0" y="9" dx="0">dct:RightsStatement</tspan></text><path fill="#DFDFDF" stroke="none" d="M1096 507C1096 502 1096 502 1101 502h79C1185 502 1185 502 1185 507v59C1185 571 1185 571 1180 571h-79C1096 571 1096 571 1096 566V507"/><path fill="#FFF" stroke="none" d="M1093 504C1093 499 1093 499 1098 499h79C1182 499 1182 499 1182 504v59C1182 568 1182 568 1177 568h-79C1093 568 1093 568 1093 563V504"/><path d="M1093 504C1093 499 1093 499 1098 499h79C1182 499 1182 499 1182 504v59C1182 568 1182 568 1177 568h-79C1093 568 1093 568 1093 563V504m0 0C1093 499 1093 499 1098 499h79C1182 499 1182 499 1182 504v59C1182 568 1182 568 1177 568h-79C1093 568 1093 568 1093 563V504"/><rect width="89" height="69" x="1093" y="499"/><text fill="#000" stroke="none" transform="matrix(1 0 0 1 1112 502)"><tspan x="0" y="9" dx="0">«optional»</tspan></text><text fill="#000" stroke="none" font-weight="bold" transform="matrix(1 0 0 1 1105 515)"><tspan x="0" y="9" dx="0">dct:Standard</tspan></text><path fill="#DFDFDF" stroke="none" d="M905 809C905 804 905 804 910 804h79C994 804 994 804 994 809v59C994 873 994 873 989 873H910C905 873 905 873 905 868V809"/><path fill="#FFF" stroke="none" d="M902 806C902 801 902 801 907 801h79C991 801 991 801 991 806v59C991 870 991 870 986 870H907C902 870 902 870 902 865V806"/><path d="M902 806C902 801 902 801 907 801h79C991 801 991 801 991 806v59C991 870 991 870 986 870H907C902 870 902 870 902 865V806m0 0C902 801 902 801 907 801h79C991 801 991 801 991 806v59C991 870 991 870 986 870H907C902 870 902 870 902 865V806"/><rect width="89" height="69" x="902" y="801"/><text fill="#000" stroke="none" transform="matrix(1 0 0 1 921 804)"><tspan x="0" y="9" dx="0">«optional»</tspan></text><text fill="#000" stroke="none" font-weight="bold" transform="matrix(1 0 0 1 919 817)"><tspan x="0" y="9" dx="0">vcard:Kind</tspan></text><path fill="#DFDFDF" stroke="none" d="M1312 283C1312 278 1312 278 1317 278h99C1421 278 1421 278 1421 283v75C1421 363 1421 363 1416 363h-99C1312 363 1312 363 1312 358V283"/><path fill="#FFF" stroke="none" d="M1309 280C1309 275 1309 275 1314 275h99C1418 275 1418 275 1418 280v75C1418 360 1418 360 1413 360h-99C1309 360 1309 360 1309 355V280"/><path d="M1309 280C1309 275 1309 275 1314 275h99C1418 275 1418 275 1418 280v75C1418 360 1418 360 1413 360h-99C1309 360 1309 360 1309 355V280m0 0C1309 275 1309 275 1314 275h99C1418 275 1418 275 1418 280v75C1418 360 1418 360 1413 360h-99C1309 360 1309 360 1309 355V280"/><rect width="109" height="85" x="1309" y="275"/><text fill="#000" stroke="none" transform="matrix(1 0 0 1 1338 278)"><tspan x="0" y="9" dx="0">«optional»</tspan></text><text fill="#000" stroke="none" font-weight="bold" transform="matrix(1 0 0 1 1323 291)"><tspan x="0" y="9" dx="0">spdx:Checksum</tspan></text><path d="M1309 308h109"/><text fill="#000" stroke="none" transform="matrix(1 0 0 1 1322 316)"><tspan x="0" y="9" dx="0">«mandatory»</tspan></text><text fill="#2F4F4F" stroke="none" transform="matrix(1 0 0 1 1314 329)"><tspan x="0" y="9" dx="0">spdx:algorithm</tspan></text><text fill="#2F4F4F" stroke="none" transform="matrix(1 0 0 1 1314 342)"><tspan x="0" y="9" dx="0">spdx:checksumValue</tspan></text><path fill="#DFDFDF" stroke="none" d="M1020 652C1020 647 1020 647 1025 647h150C1180 647 1180 647 1180 652v28C1180 685 1180 685 1175 685H1025C1020 685 1020 685 1020 680V652"/><path fill="#FFF" stroke="none" d="M1017 649C1017 644 1017 644 1022 644h150C1177 644 1177 644 1177 649v28C1177 682 1177 682 1172 682H1022C1017 682 1017 682 1017 677V649"/><path d="M1017 649C1017 644 1017 644 1022 644h150C1177 644 1177 644 1177 649v28C1177 682 1177 682 1172 682H1022C1017 682 1017 682 1017 677V649m0 0C1017 644 1017 644 1022 644h150C1177 644 1177 644 1177 649v28C1177 682 1177 682 1172 682H1022C1017 682 1017 682 1017 677V649"/><rect width="160" height="38" x="1017" y="644"/><text fill="#000" stroke="none" transform="matrix(1 0 0 1 1072 647)"><tspan x="0" y="9" dx="0">«optional»</tspan></text><text fill="#000" stroke="none" font-weight="bold" transform="matrix(1 0 0 1 1031 660)"><tspan x="0" y="9" dx="0">dct:ProvenanceStatement</tspan></text><path d="M420 415V141m0 0H192m0 0l15 -6m-15 6l15 6"/><path d="M1214 132h110m0 0l-15 6m15 -6l-15 -6"/><path d="M1214 189l83 2m0 0l-15 6m15 -6l-15 -6"/><path d="M745 283L590 213m0 0l16 1m-16 -1l11 12"/><path d="M898 613l195 -75m0 0l-12 11m12 -11h-16"/><path d="M501 415V271m0 0l9 -35m0 0V221m0 0l6 15m-6 -15l-6 15"/><path d="M538 415L649 244.61C649.89 245.19 650.93 245.5 652 245.5C655.54 246 658 243.54 658 240.5C657.5 238.21 656.63 236.53 655.17 235.5M655 235l35 -49m0 0H826m0 0l-15 6m15 -6l-15 -6"/><path d="M898 640l119 17m0 0l-16 4m16 -4l-14 -8"/><path d="M739 334L595.5 333.04C595.5 333.02 595.5 333.01 595.5 333C596 330.46 593.54 328 590.5 328C587.46 328 585 330.46 585 333.5C584.5 333.02 584.5 333.03 584.5 333.05M584 333L505.5 333.02C505.5 333.02 505.5 333.01 505.5 333C506 330.46 503.54 328 500.5 328C497.46 328 495 330.46 495 333.5C494.5 333.03 494.5 333.05 494.5 333.08M494 333L424.5 333.02C424.5 333.01 424.5 333.01 424.5 333C425 330.46 422.54 328 419.5 328C416.46 328 414 330.46 414 333.5C413.5 333.06 413.5 333.11 413.5 333.17M413 333l-59 2m0 0l15 -6m-15 6l15 6"/><path d="M898 527l105 -54m0 0l-11 12m11 -12l-16 2"/><path d="M864 644l68 157m0 0L921 790m11 11V785"/><path d="M202 652H304m0 0V527m0 0H405m0 0l-15 6m15 -6l-15 -6"/><path d="M285 273V201m0 0H154m0 0V163m0 0l6 15m-6 -15l-6 15"/><path d="M843 644l3 157m0 0l-6 -15m6 15l6 -15"/><path d="M202 710L739 577m0 0l-13 9m13 -9l-16 -2"/><path d="M783 283L780.17 190.5C783.12 190.41 785.5 187.95 785.5 185C785.5 182.02 783.07 179.55 780.09 179.5M780 179l1 -58m0 0H192m0 0l15 -6m-15 6l15 6"/><path d="M898 332h180m0 0l-15 6m15 -6l-15 -6"/><path d="M551 441H739m0 0l-15 6m15 -6l-15 -6"/><path d="M59 809V918m0 0H1447m0 0V158m0 0l6 15m-6 -15l-6 15"/><path d="M761 283L759.11 190.5C762.09 190.44 764.5 187.97 764.5 185C764.5 181.98 762.02 179.5 759 179.5M758 179L758.1 125.5C761.08 125.44 763.5 122.98 763.5 120C763.5 117.01 761.06 114.54 758.08 114.5M758 114l1 -66m0 0H145m0 0V70m0 0L139 55m6 15l6 -15"/><path d="M898 462h57m0 0V425m0 0H898m0 0l15 -6m-15 6l15 6"/><path d="M898 622l209 -21m0 0l-14 7m14 -7l-16 -4"/><path d="M140 608V314m0 0l6 15m-6 -15l-6 15"/><path d="M190 608V371m0 0h88m0 0V349m0 0l6 15m-6 -15l-6 15"/><path d="M202 610L383.95 337.57C384.85 338.18 385.91 338.5 387 338.5C390.54 339 393 336.54 393 333.5C392.5 331.2 391.62 329.51 390.14 328.48M390 328L415.94 290.57C416.84 291.18 417.91 291.5 419 291.5C422.54 292 425 289.54 425 286.5C424.5 284.21 423.62 282.53 422.16 281.5M422 281l58 -82m0 0l-3 16m3 -16l-13 9"/><path d="M739 500H682m0 0v28m0 0h57m0 0l-15 6m15 -6l-15 -6"/><path d="M1078 226l-162 1m0 0l15 -6m-15 6l15 6"/><path d="M870 283l-2 -42m0 0l7 15m-7 -15l-5 15"/><path d="M202 767h62m0 0V747m0 0H202m0 0l15 -6m-15 6l15 6M202 735h62m0 0V715m0 0H202m0 0l15 -6m-15 6l15 6"/><path d="M551 566h61m0 0V531m0 0H551m0 0l15 -6m-15 6l15 6"/><path d="M1078 150L785.5 149.02C785.5 149.01 785.5 149.01 785.5 149C786 146.46 783.54 144 780.5 144C777.46 144 775 146.46 775 149.5C774.5 149.01 774.5 149.02 774.5 149.03M774 149L763.5 149.02C763.5 149.01 763.5 149.01 763.5 149C764 146.46 761.54 144 758.5 144C755.46 144 753 146.46 753 149.5C752.5 149.01 752.5 149.02 752.5 149.03M752 149l-162 1m0 0l15 -6m-15 6l15 6"/><path d="M1159 350l3 149m0 0l-6 -15m6 15l6 -15"/><path d="M1214 344h67m0 0V907m0 0H613m0 0V866m0 0l6 15m-6 -15l-6 15"/><path d="M1214 297h95m0 0l-15 6m15 -6l-15 -6"/><path d="M779 644L656 796m0 0l5 -15m-5 15l14 -8"/><path d="M1207 350l-2 229m0 0l-6 -15m6 15l6 -15"/><path d="M739 364H671m0 0v39m0 0h68m0 0l-15 6m15 -6l-15 -6"/><path d="M1168 103V98m0 0L763.5 97.01C763.5 97.01 763.5 97 763.5 97C764 94.46 761.54 92 758.5 92C755.46 92 753 94.46 753 97.5C752.5 97 752.5 97.01 752.5 97.01M752 97L192 98m0 0l15 -6m-15 6l15 6"/><path d="M118 809v80m0 0L606.5 888.01C606.51 891.02 608.99 893.5 612 893.5C615.01 893.5 617.49 891.02 617.5 888.01M617 888l586 1m0 0V622m0 0l6 15m-6 -15l-6 15"/><path d="M1368 111V78m0 0L763.5 77.01C763.5 77.01 763.5 77 763.5 77C764 74.46 761.54 72 758.5 72C755.46 72 753 74.46 753 77.5C752.5 77 752.5 77.01 752.5 77.01M752 77L192 78m0 0l15 -6m-15 6l15 6"/><path d="M1214 241h83m0 0l-15 6m15 -6l-15 -6"/><path d="M1078 182H916m0 0l15 -6m-15 6l15 6"/><path d="M739 623L612 796m0 0l4 -16m-4 16l14 -9"/><path d="M202 805H405m0 0l-15 6m15 -6l-15 -6"/><path d="M161 809v34m0 0H567m0 0l-15 6m15 -6l-15 -6"/><path d="M878 644l194 137m0 0l-16 -4m16 4l-9 -14"/><path d="M812 644L749 800m0 0V784m0 16l11 -12"/><path d="M739 601L495 748m0 0l10 -13m-10 13l16 -3"/><path d="M898 290h180m0 0l-15 6m15 -6l-15 -6"/><path d="M898 414h54m0 0V385m0 0H898m0 0l15 -6m-15 6l15 6"/><g transform="matrix(1 0 0 -1 953 212)"><rect width="93" height="11" x="0" y="-11" fill="#FFF" stroke="none"/></g><text fill="#000" stroke="none" transform="matrix(1 0 0 1 953 212)"><tspan x="0" y="9" dx="0">dcat:downloadURL</tspan></text><g transform="matrix(1 0 0 -1 972 229)"><rect width="53" height="11" x="0" y="-11" fill="#FFF" stroke="none"/></g><text fill="#000" stroke="none" transform="matrix(1 0 0 1 972 229)"><tspan x="0" y="9" dx="0">«optional»</tspan></text><g transform="matrix(1 0 0 -1 919 232)"><rect width="17" height="11" x="0" y="-11" fill="#FFF" stroke="none"/></g><text fill="#000" stroke="none" transform="matrix(1 0 0 1 919 232)"><tspan x="0" y="9" dx="0">0..*</tspan></text><g transform="matrix(1 0 0 -1 633 695)"><rect width="88" height="11" x="0" y="-11" fill="#FFF" stroke="none"/></g><text fill="#000" stroke="none" transform="matrix(1 0 0 1 633 695)"><tspan x="0" y="9" dx="0">dcat:landingPage</tspan></text><g transform="matrix(1 0 0 -1 650 712)"><rect width="53" height="11" x="0" y="-11" fill="#FFF" stroke="none"/></g><text fill="#000" stroke="none" transform="matrix(1 0 0 1 650 712)"><tspan x="0" y="9" dx="0">«optional»</tspan></text><g transform="matrix(1 0 0 -1 620 778)"><rect width="17" height="11" x="0" y="-11" fill="#FFF" stroke="none"/></g><text fill="#000" stroke="none" transform="matrix(1 0 0 1 620 778)"><tspan x="0" y="9" dx="0">0..*</tspan></text><g transform="matrix(1 0 0 -1 671 751)"><rect width="47" height="11" x="0" y="-11" fill="#FFF" stroke="none"/></g><text fill="#000" stroke="none" transform="matrix(1 0 0 1 671 751)"><tspan x="0" y="9" dx="0">foaf:page</tspan></text><g transform="matrix(1 0 0 -1 668 766)"><rect width="53" height="11" x="0" y="-11" fill="#FFF" stroke="none"/></g><text fill="#000" stroke="none" transform="matrix(1 0 0 1 668 766)"><tspan x="0" y="9" dx="0">«optional»</tspan></text><g transform="matrix(1 0 0 -1 664 778)"><rect width="17" height="11" x="0" y="-11" fill="#FFF" stroke="none"/></g><text fill="#000" stroke="none" transform="matrix(1 0 0 1 664 778)"><tspan x="0" y="9" dx="0">0..*</tspan></text><g transform="matrix(1 0 0 -1 724 691)"><rect width="105" height="11" x="0" y="-11" fill="#FFF" stroke="none"/></g><text fill="#000" stroke="none" transform="matrix(1 0 0 1 724 691)"><tspan x="0" y="9" dx="0">dct:accrualPeriodicity</tspan></text><g transform="matrix(1 0 0 -1 754 707)"><rect width="53" height="11" x="0" y="-11" fill="#FFF" stroke="none"/></g><text fill="#000" stroke="none" transform="matrix(1 0 0 1 754 707)"><tspan x="0" y="9" dx="0">«optional»</tspan></text><g transform="matrix(1 0 0 -1 757 782)"><rect width="19" height="11" x="0" y="-11" fill="#FFF" stroke="none"/></g><text fill="#000" stroke="none" transform="matrix(1 0 0 1 757 782)"><tspan x="0" y="9" dx="0">0..1</tspan></text><g transform="matrix(1 0 0 -1 916 482)"><rect width="63" height="11" x="0" y="-11" fill="#FFF" stroke="none"/></g><text fill="#000" stroke="none" transform="matrix(1 0 0 1 916 482)"><tspan x="0" y="9" dx="0">dcat:keyword</tspan></text><g transform="matrix(1 0 0 -1 911 501)"><rect width="83" height="11" x="0" y="-11" fill="#FFF" stroke="none"/></g><text fill="#000" stroke="none" transform="matrix(1 0 0 1 911 501)"><tspan x="0" y="9" dx="0">«recommended»</tspan></text><g transform="matrix(1 0 0 -1 984 478)"><rect width="17" height="11" x="0" y="-11" fill="#FFF" stroke="none"/></g><text fill="#000" stroke="none" transform="matrix(1 0 0 1 984 478)"><tspan x="0" y="9" dx="0">0..*</tspan></text><g transform="matrix(1 0 0 -1 604 427)"><rect width="86" height="11" x="0" y="-11" fill="#FFF" stroke="none"/></g><text fill="#000" stroke="none" transform="matrix(1 0 0 1 604 427)"><tspan x="0" y="9" dx="0">foaf:primaryTopic</tspan></text><g transform="matrix(1 0 0 -1 614 444)"><rect width="65" height="11" x="0" y="-11" fill="#FFF" stroke="none"/></g><text fill="#000" stroke="none" transform="matrix(1 0 0 1 614 444)"><tspan x="0" y="9" dx="0">«mandatory»</tspan></text><g transform="matrix(1 0 0 -1 718 446)"><rect width="19" height="11" x="0" y="-11" fill="#FFF" stroke="none"/></g><text fill="#000" stroke="none" transform="matrix(1 0 0 1 718 446)"><tspan x="0" y="9" dx="0">1..1</tspan></text><g transform="matrix(1 0 0 -1 808 252)"><rect width="55" height="11" x="0" y="-11" fill="#FFF" stroke="none"/></g><text fill="#000" stroke="none" transform="matrix(1 0 0 1 808 252)"><tspan x="0" y="9" dx="0">dct:relation</tspan></text><g transform="matrix(1 0 0 -1 809 264)"><rect width="53" height="11" x="0" y="-11" fill="#FFF" stroke="none"/></g><text fill="#000" stroke="none" transform="matrix(1 0 0 1 809 264)"><tspan x="0" y="9" dx="0">«optional»</tspan></text><g transform="matrix(1 0 0 -1 636 234)"><rect width="65" height="11" x="0" y="-11" fill="#FFF" stroke="none"/></g><text fill="#000" stroke="none" transform="matrix(1 0 0 1 636 234)"><tspan x="0" y="9" dx="0">dct:language</tspan></text><g transform="matrix(1 0 0 -1 641 251)"><rect width="53" height="11" x="0" y="-11" fill="#FFF" stroke="none"/></g><text fill="#000" stroke="none" transform="matrix(1 0 0 1 641 251)"><tspan x="0" y="9" dx="0">«optional»</tspan></text><g transform="matrix(1 0 0 -1 601 223)"><rect width="17" height="11" x="0" y="-11" fill="#FFF" stroke="none"/></g><text fill="#000" stroke="none" transform="matrix(1 0 0 1 601 223)"><tspan x="0" y="9" dx="0">0..*</tspan></text><g transform="matrix(1 0 0 -1 247 454)"><rect width="65" height="11" x="0" y="-11" fill="#FFF" stroke="none"/></g><text fill="#000" stroke="none" transform="matrix(1 0 0 1 247 454)"><tspan x="0" y="9" dx="0">dct:language</tspan></text><g transform="matrix(1 0 0 -1 233 472)"><rect width="83" height="11" x="0" y="-11" fill="#FFF" stroke="none"/></g><text fill="#000" stroke="none" transform="matrix(1 0 0 1 233 472)"><tspan x="0" y="9" dx="0">«recommended»</tspan></text><g transform="matrix(1 0 0 -1 460 216)"><rect width="17" height="11" x="0" y="-11" fill="#FFF" stroke="none"/></g><text fill="#000" stroke="none" transform="matrix(1 0 0 1 460 216)"><tspan x="0" y="9" dx="0">0..*</tspan></text><g transform="matrix(1 0 0 -1 1217 222)"><rect width="80" height="11" x="0" y="-11" fill="#FFF" stroke="none"/></g><text fill="#000" stroke="none" transform="matrix(1 0 0 1 1217 222)"><tspan x="0" y="9" dx="0">dcat:mediaType</tspan></text><g transform="matrix(1 0 0 -1 1230 244)"><rect width="53" height="11" x="0" y="-11" fill="#FFF" stroke="none"/></g><text fill="#000" stroke="none" transform="matrix(1 0 0 1 1230 244)"><tspan x="0" y="9" dx="0">«optional»</tspan></text><g transform="matrix(1 0 0 -1 1276 246)"><rect width="19" height="11" x="0" y="-11" fill="#FFF" stroke="none"/></g><text fill="#000" stroke="none" transform="matrix(1 0 0 1 1276 246)"><tspan x="0" y="9" dx="0">0..1</tspan></text><g transform="matrix(1 0 0 -1 1117 389)"><rect width="75" height="11" x="0" y="-11" fill="#FFF" stroke="none"/></g><text fill="#000" stroke="none" transform="matrix(1 0 0 1 1117 389)"><tspan x="0" y="9" dx="0">dct:conformsTo</tspan></text><g transform="matrix(1 0 0 -1 1130 405)"><rect width="53" height="11" x="0" y="-11" fill="#FFF" stroke="none"/></g><text fill="#000" stroke="none" transform="matrix(1 0 0 1 1130 405)"><tspan x="0" y="9" dx="0">«optional»</tspan></text><g transform="matrix(1 0 0 -1 1170 481)"><rect width="17" height="11" x="0" y="-11" fill="#FFF" stroke="none"/></g><text fill="#000" stroke="none" transform="matrix(1 0 0 1 1170 481)"><tspan x="0" y="9" dx="0">0..*</tspan></text><g transform="matrix(1 0 0 -1 946 698)"><rect width="61" height="11" x="0" y="-11" fill="#FFF" stroke="none"/></g><text fill="#000" stroke="none" transform="matrix(1 0 0 1 946 698)"><tspan x="0" y="9" dx="0">dct:temporal</tspan></text><g transform="matrix(1 0 0 -1 950 715)"><rect width="53" height="11" x="0" y="-11" fill="#FFF" stroke="none"/></g><text fill="#000" stroke="none" transform="matrix(1 0 0 1 950 715)"><tspan x="0" y="9" dx="0">«optional»</tspan></text><g transform="matrix(1 0 0 -1 1080 763)"><rect width="17" height="11" x="0" y="-11" fill="#FFF" stroke="none"/></g><text fill="#000" stroke="none" transform="matrix(1 0 0 1 1080 763)"><tspan x="0" y="9" dx="0">0..*</tspan></text><g transform="matrix(1 0 0 -1 921 634)"><rect width="75" height="11" x="0" y="-11" fill="#FFF" stroke="none"/></g><text fill="#000" stroke="none" transform="matrix(1 0 0 1 921 634)"><tspan x="0" y="9" dx="0">dct:provenance</tspan></text><g transform="matrix(1 0 0 -1 932 651)"><rect width="53" height="11" x="0" y="-11" fill="#FFF" stroke="none"/></g><text fill="#000" stroke="none" transform="matrix(1 0 0 1 932 651)"><tspan x="0" y="9" dx="0">«optional»</tspan></text><g transform="matrix(1 0 0 -1 998 662)"><rect width="17" height="11" x="0" y="-11" fill="#FFF" stroke="none"/></g><text fill="#000" stroke="none" transform="matrix(1 0 0 1 998 662)"><tspan x="0" y="9" dx="0">0..*</tspan></text><g transform="matrix(1 0 0 -1 809 708)"><rect width="73" height="11" x="0" y="-11" fill="#FFF" stroke="none"/></g><text fill="#000" stroke="none" transform="matrix(1 0 0 1 809 708)"><tspan x="0" y="9" dx="0">adms:identifier</tspan></text><g transform="matrix(1 0 0 -1 819 725)"><rect width="53" height="11" x="0" y="-11" fill="#FFF" stroke="none"/></g><text fill="#000" stroke="none" transform="matrix(1 0 0 1 819 725)"><tspan x="0" y="9" dx="0">«optional»</tspan></text><g transform="matrix(1 0 0 -1 854 783)"><rect width="17" height="11" x="0" y="-11" fill="#FFF" stroke="none"/></g><text fill="#000" stroke="none" transform="matrix(1 0 0 1 854 783)"><tspan x="0" y="9" dx="0">0..*</tspan></text><g transform="matrix(1 0 0 -1 898 442)"><rect width="105" height="11" x="0" y="-11" fill="#FFF" stroke="none"/></g><text fill="#000" stroke="none" transform="matrix(1 0 0 1 898 442)"><tspan x="0" y="9" dx="0">«optional» dct:source</tspan></text><g transform="matrix(1 0 0 -1 902 433)"><rect width="17" height="11" x="0" y="-11" fill="#FFF" stroke="none"/></g><text fill="#000" stroke="none" transform="matrix(1 0 0 1 902 433)"><tspan x="0" y="9" dx="0">0..*</tspan></text><g transform="matrix(1 0 0 -1 204 357)"><rect width="63" height="11" x="0" y="-11" fill="#FFF" stroke="none"/></g><text fill="#000" stroke="none" transform="matrix(1 0 0 1 204 357)"><tspan x="0" y="9" dx="0">dct:publisher</tspan></text><g transform="matrix(1 0 0 -1 203 374)"><rect width="65" height="11" x="0" y="-11" fill="#FFF" stroke="none"/></g><text fill="#000" stroke="none" transform="matrix(1 0 0 1 203 374)"><tspan x="0" y="9" dx="0">«mandatory»</tspan></text><g transform="matrix(1 0 0 -1 290 354)"><rect width="19" height="11" x="0" y="-11" fill="#FFF" stroke="none"/></g><text fill="#000" stroke="none" transform="matrix(1 0 0 1 290 354)"><tspan x="0" y="9" dx="0">1..1</tspan></text><g transform="matrix(1 0 0 -1 965 166)"><rect width="76" height="11" x="0" y="-11" fill="#FFF" stroke="none"/></g><text fill="#000" stroke="none" transform="matrix(1 0 0 1 965 166)"><tspan x="0" y="9" dx="0">dcat:accessURL</tspan></text><g transform="matrix(1 0 0 -1 966 185)"><rect width="65" height="11" x="0" y="-11" fill="#FFF" stroke="none"/></g><text fill="#000" stroke="none" transform="matrix(1 0 0 1 966 185)"><tspan x="0" y="9" dx="0">«mandatory»</tspan></text><g transform="matrix(1 0 0 -1 919 187)"><rect width="17" height="11" x="0" y="-11" fill="#FFF" stroke="none"/></g><text fill="#000" stroke="none" transform="matrix(1 0 0 1 919 187)"><tspan x="0" y="9" dx="0">1..*</tspan></text><g transform="matrix(1 0 0 -1 1221 275)"><rect width="72" height="11" x="0" y="-11" fill="#FFF" stroke="none"/></g><text fill="#000" stroke="none" transform="matrix(1 0 0 1 1221 275)"><tspan x="0" y="9" dx="0">spdx:checksum</tspan></text><g transform="matrix(1 0 0 -1 1230 300)"><rect width="53" height="11" x="0" y="-11" fill="#FFF" stroke="none"/></g><text fill="#000" stroke="none" transform="matrix(1 0 0 1 1230 300)"><tspan x="0" y="9" dx="0">«optional»</tspan></text><g transform="matrix(1 0 0 -1 1288 302)"><rect width="19" height="11" x="0" y="-11" fill="#FFF" stroke="none"/></g><text fill="#000" stroke="none" transform="matrix(1 0 0 1 1288 302)"><tspan x="0" y="9" dx="0">0..1</tspan></text><g transform="matrix(1 0 0 -1 278 575)"><rect width="54" height="11" x="0" y="-11" fill="#FFF" stroke="none"/></g><text fill="#000" stroke="none" transform="matrix(1 0 0 1 278 575)"><tspan x="0" y="9" dx="0">dcat:record</tspan></text><g transform="matrix(1 0 0 -1 279 592)"><rect width="53" height="11" x="0" y="-11" fill="#FFF" stroke="none"/></g><text fill="#000" stroke="none" transform="matrix(1 0 0 1 279 592)"><tspan x="0" y="9" dx="0">«optional»</tspan></text><g transform="matrix(1 0 0 -1 386 532)"><rect width="17" height="11" x="0" y="-11" fill="#FFF" stroke="none"/></g><text fill="#000" stroke="none" transform="matrix(1 0 0 1 386 532)"><tspan x="0" y="9" dx="0">0..*</tspan></text><g transform="matrix(1 0 0 -1 827 62)"><rect width="39" height="11" x="0" y="-11" fill="#FFF" stroke="none"/></g><text fill="#000" stroke="none" transform="matrix(1 0 0 1 827 62)"><tspan x="0" y="9" dx="0">dct:type</tspan></text><g transform="matrix(1 0 0 -1 803 79)"><rect width="83" height="11" x="0" y="-11" fill="#FFF" stroke="none"/></g><text fill="#000" stroke="none" transform="matrix(1 0 0 1 803 79)"><tspan x="0" y="9" dx="0">«recommended»</tspan></text><g transform="matrix(1 0 0 -1 206 82)"><rect width="17" height="11" x="0" y="-11" fill="#FFF" stroke="none"/></g><text fill="#000" stroke="none" transform="matrix(1 0 0 1 206 82)"><tspan x="0" y="9" dx="0">0..*</tspan></text><g transform="matrix(1 0 0 -1 474 254)"><rect width="65" height="11" x="0" y="-11" fill="#FFF" stroke="none"/></g><text fill="#000" stroke="none" transform="matrix(1 0 0 1 474 254)"><tspan x="0" y="9" dx="0">dct:language</tspan></text><g transform="matrix(1 0 0 -1 481 269)"><rect width="53" height="11" x="0" y="-11" fill="#FFF" stroke="none"/></g><text fill="#000" stroke="none" transform="matrix(1 0 0 1 481 269)"><tspan x="0" y="9" dx="0">«optional»</tspan></text><g transform="matrix(1 0 0 -1 522 226)"><rect width="17" height="11" x="0" y="-11" fill="#FFF" stroke="none"/></g><text fill="#000" stroke="none" transform="matrix(1 0 0 1 522 226)"><tspan x="0" y="9" dx="0">0..*</tspan></text><g transform="matrix(1 0 0 -1 951 315)"><rect width="78" height="11" x="0" y="-11" fill="#FFF" stroke="none"/></g><text fill="#000" stroke="none" transform="matrix(1 0 0 1 951 315)"><tspan x="0" y="9" dx="0">dcat:distribution</tspan></text><g transform="matrix(1 0 0 -1 947 334)"><rect width="83" height="11" x="0" y="-11" fill="#FFF" stroke="none"/></g><text fill="#000" stroke="none" transform="matrix(1 0 0 1 947 334)"><tspan x="0" y="9" dx="0">«recommended»</tspan></text><g transform="matrix(1 0 0 -1 1059 337)"><rect width="17" height="11" x="0" y="-11" fill="#FFF" stroke="none"/></g><text fill="#000" stroke="none" transform="matrix(1 0 0 1 1059 337)"><tspan x="0" y="9" dx="0">0..*</tspan></text><g transform="matrix(1 0 0 -1 265 706)"><rect width="53" height="11" x="0" y="-11" fill="#FFF" stroke="none"/></g><text fill="#000" stroke="none" transform="matrix(1 0 0 1 265 706)"><tspan x="0" y="9" dx="0">«optional»</tspan></text><g transform="matrix(1 0 0 -1 265 719)"><rect width="54" height="11" x="0" y="-11" fill="#FFF" stroke="none"/></g><text fill="#000" stroke="none" transform="matrix(1 0 0 1 265 719)"><tspan x="0" y="9" dx="0">dct:hasPart</tspan></text><g transform="matrix(1 0 0 -1 205 717)"><rect width="17" height="11" x="0" y="-11" fill="#FFF" stroke="none"/></g><text fill="#000" stroke="none" transform="matrix(1 0 0 1 205 717)"><tspan x="0" y="9" dx="0">0..*</tspan></text><g transform="matrix(1 0 0 -1 1372 689)"><rect width="52" height="11" x="0" y="-11" fill="#FFF" stroke="none"/></g><text fill="#000" stroke="none" transform="matrix(1 0 0 1 1372 689)"><tspan x="0" y="9" dx="0">dct:license</tspan></text><g transform="matrix(1 0 0 -1 1361 706)"><rect width="83" height="11" x="0" y="-11" fill="#FFF" stroke="none"/></g><text fill="#000" stroke="none" transform="matrix(1 0 0 1 1361 706)"><tspan x="0" y="9" dx="0">«recommended»</tspan></text><g transform="matrix(1 0 0 -1 1459 163)"><rect width="19" height="11" x="0" y="-11" fill="#FFF" stroke="none"/></g><text fill="#000" stroke="none" transform="matrix(1 0 0 1 1459 163)"><tspan x="0" y="9" dx="0">0..1</tspan></text><g transform="matrix(1 0 0 -1 1190 748)"><rect width="44" height="11" x="0" y="-11" fill="#FFF" stroke="none"/></g><text fill="#000" stroke="none" transform="matrix(1 0 0 1 1190 748)"><tspan x="0" y="9" dx="0">dct:rights</tspan></text><g transform="matrix(1 0 0 -1 1183 765)"><rect width="53" height="11" x="0" y="-11" fill="#FFF" stroke="none"/></g><text fill="#000" stroke="none" transform="matrix(1 0 0 1 1183 765)"><tspan x="0" y="9" dx="0">«optional»</tspan></text><g transform="matrix(1 0 0 -1 1215 627)"><rect width="19" height="11" x="0" y="-11" fill="#FFF" stroke="none"/></g><text fill="#000" stroke="none" transform="matrix(1 0 0 1 1215 627)"><tspan x="0" y="9" dx="0">0..1</tspan></text><g transform="matrix(1 0 0 -1 1284 581)"><rect width="47" height="11" x="0" y="-11" fill="#FFF" stroke="none"/></g><text fill="#000" stroke="none" transform="matrix(1 0 0 1 1284 581)"><tspan x="0" y="9" dx="0">foaf:page</tspan></text><g transform="matrix(1 0 0 -1 1279 596)"><rect width="53" height="11" x="0" y="-11" fill="#FFF" stroke="none"/></g><text fill="#000" stroke="none" transform="matrix(1 0 0 1 1279 596)"><tspan x="0" y="9" dx="0">«optional»</tspan></text><g transform="matrix(1 0 0 -1 625 871)"><rect width="17" height="11" x="0" y="-11" fill="#FFF" stroke="none"/></g><text fill="#000" stroke="none" transform="matrix(1 0 0 1 625 871)"><tspan x="0" y="9" dx="0">0..*</tspan></text><g transform="matrix(1 0 0 -1 328 829)"><rect width="75" height="11" x="0" y="-11" fill="#FFF" stroke="none"/></g><text fill="#000" stroke="none" transform="matrix(1 0 0 1 328 829)"><tspan x="0" y="9" dx="0">foaf:homepage</tspan></text><g transform="matrix(1 0 0 -1 324 846)"><rect width="83" height="11" x="0" y="-11" fill="#FFF" stroke="none"/></g><text fill="#000" stroke="none" transform="matrix(1 0 0 1 324 846)"><tspan x="0" y="9" dx="0">«recommended»</tspan></text><g transform="matrix(1 0 0 -1 546 848)"><rect width="19" height="11" x="0" y="-11" fill="#FFF" stroke="none"/></g><text fill="#000" stroke="none" transform="matrix(1 0 0 1 546 848)"><tspan x="0" y="9" dx="0">0..1</tspan></text><g transform="matrix(1 0 0 -1 1185 450)"><rect width="44" height="11" x="0" y="-11" fill="#FFF" stroke="none"/></g><text fill="#000" stroke="none" transform="matrix(1 0 0 1 1185 450)"><tspan x="0" y="9" dx="0">dct:rights</tspan></text><g transform="matrix(1 0 0 -1 1181 467)"><rect width="53" height="11" x="0" y="-11" fill="#FFF" stroke="none"/></g><text fill="#000" stroke="none" transform="matrix(1 0 0 1 1181 467)"><tspan x="0" y="9" dx="0">«optional»</tspan></text><g transform="matrix(1 0 0 -1 1213 561)"><rect width="19" height="11" x="0" y="-11" fill="#FFF" stroke="none"/></g><text fill="#000" stroke="none" transform="matrix(1 0 0 1 1213 561)"><tspan x="0" y="9" dx="0">0..1</tspan></text><g transform="matrix(1 0 0 -1 1244 118)"><rect width="52" height="11" x="0" y="-11" fill="#FFF" stroke="none"/></g><text fill="#000" stroke="none" transform="matrix(1 0 0 1 1244 118)"><tspan x="0" y="9" dx="0">dct:license</tspan></text><g transform="matrix(1 0 0 -1 1229 135)"><rect width="83" height="11" x="0" y="-11" fill="#FFF" stroke="none"/></g><text fill="#000" stroke="none" transform="matrix(1 0 0 1 1229 135)"><tspan x="0" y="9" dx="0">«recommended»</tspan></text><g transform="matrix(1 0 0 -1 1303 137)"><rect width="19" height="11" x="0" y="-11" fill="#FFF" stroke="none"/></g><text fill="#000" stroke="none" transform="matrix(1 0 0 1 1303 137)"><tspan x="0" y="9" dx="0">0..1</tspan></text><g transform="matrix(1 0 0 -1 957 276)"><rect width="65" height="11" x="0" y="-11" fill="#FFF" stroke="none"/></g><text fill="#000" stroke="none" transform="matrix(1 0 0 1 957 276)"><tspan x="0" y="9" dx="0">adms:sample</tspan></text><g transform="matrix(1 0 0 -1 963 293)"><rect width="53" height="11" x="0" y="-11" fill="#FFF" stroke="none"/></g><text fill="#000" stroke="none" transform="matrix(1 0 0 1 963 293)"><tspan x="0" y="9" dx="0">«optional»</tspan></text><g transform="matrix(1 0 0 -1 1059 295)"><rect width="17" height="11" x="0" y="-11" fill="#FFF" stroke="none"/></g><text fill="#000" stroke="none" transform="matrix(1 0 0 1 1059 295)"><tspan x="0" y="9" dx="0">0..*</tspan></text><g transform="matrix(1 0 0 -1 477 109)"><rect width="55" height="11" x="0" y="-11" fill="#FFF" stroke="none"/></g><text fill="#000" stroke="none" transform="matrix(1 0 0 1 477 109)"><tspan x="0" y="9" dx="0">dcat:theme</tspan></text><g transform="matrix(1 0 0 -1 460 127)"><rect width="83" height="11" x="0" y="-11" fill="#FFF" stroke="none"/></g><text fill="#000" stroke="none" transform="matrix(1 0 0 1 460 127)"><tspan x="0" y="9" dx="0">«recommended»</tspan></text><g transform="matrix(1 0 0 -1 205 126)"><rect width="17" height="11" x="0" y="-11" fill="#FFF" stroke="none"/></g><text fill="#000" stroke="none" transform="matrix(1 0 0 1 205 126)"><tspan x="0" y="9" dx="0">0..*</tspan></text><g transform="matrix(1 0 0 -1 90 448)"><rect width="107" height="11" x="0" y="-11" fill="#FFF" stroke="none"/></g><text fill="#000" stroke="none" transform="matrix(1 0 0 1 90 448)"><tspan x="0" y="9" dx="0">dcat:themeTaxonomy</tspan></text><g transform="matrix(1 0 0 -1 100 464)"><rect width="83" height="11" x="0" y="-11" fill="#FFF" stroke="none"/></g><text fill="#000" stroke="none" transform="matrix(1 0 0 1 100 464)"><tspan x="0" y="9" dx="0">«recommended»</tspan></text><g transform="matrix(1 0 0 -1 152 319)"><rect width="17" height="11" x="0" y="-11" fill="#FFF" stroke="none"/></g><text fill="#000" stroke="none" transform="matrix(1 0 0 1 152 319)"><tspan x="0" y="9" dx="0">0..*</tspan></text><g transform="matrix(1 0 0 -1 1232 176)"><rect width="49" height="11" x="0" y="-11" fill="#FFF" stroke="none"/></g><text fill="#000" stroke="none" transform="matrix(1 0 0 1 1232 176)"><tspan x="0" y="9" dx="0">dct:format</tspan></text><g transform="matrix(1 0 0 -1 1215 193)"><rect width="83" height="11" x="0" y="-11" fill="#FFF" stroke="none"/></g><text fill="#000" stroke="none" transform="matrix(1 0 0 1 1215 193)"><tspan x="0" y="9" dx="0">«recommended»</tspan></text><g transform="matrix(1 0 0 -1 1276 196)"><rect width="19" height="11" x="0" y="-11" fill="#FFF" stroke="none"/></g><text fill="#000" stroke="none" transform="matrix(1 0 0 1 1276 196)"><tspan x="0" y="9" dx="0">0..1</tspan></text><g transform="matrix(1 0 0 -1 803 136)"><rect width="65" height="11" x="0" y="-11" fill="#FFF" stroke="none"/></g><text fill="#000" stroke="none" transform="matrix(1 0 0 1 803 136)"><tspan x="0" y="9" dx="0">dct:language</tspan></text><g transform="matrix(1 0 0 -1 809 153)"><rect width="53" height="11" x="0" y="-11" fill="#FFF" stroke="none"/></g><text fill="#000" stroke="none" transform="matrix(1 0 0 1 809 153)"><tspan x="0" y="9" dx="0">«optional»</tspan></text><g transform="matrix(1 0 0 -1 597 157)"><rect width="17" height="11" x="0" y="-11" fill="#FFF" stroke="none"/></g><text fill="#000" stroke="none" transform="matrix(1 0 0 1 597 157)"><tspan x="0" y="9" dx="0">0..*</tspan></text><g transform="matrix(1 0 0 -1 274 807)"><rect width="50" height="11" x="0" y="-11" fill="#FFF" stroke="none"/></g><text fill="#000" stroke="none" transform="matrix(1 0 0 1 274 807)"><tspan x="0" y="9" dx="0">dct:spatial</tspan></text><g transform="matrix(1 0 0 -1 278 789)"><rect width="53" height="11" x="0" y="-11" fill="#FFF" stroke="none"/></g><text fill="#000" stroke="none" transform="matrix(1 0 0 1 278 789)"><tspan x="0" y="9" dx="0">«optional»</tspan></text><g transform="matrix(1 0 0 -1 386 810)"><rect width="17" height="11" x="0" y="-11" fill="#FFF" stroke="none"/></g><text fill="#000" stroke="none" transform="matrix(1 0 0 1 386 810)"><tspan x="0" y="9" dx="0">0..*</tspan></text><g transform="matrix(1 0 0 -1 576 540)"><rect width="105" height="11" x="0" y="-11" fill="#FFF" stroke="none"/></g><text fill="#000" stroke="none" transform="matrix(1 0 0 1 576 540)"><tspan x="0" y="9" dx="0">«optional» dct:source</tspan></text><g transform="matrix(1 0 0 -1 558 511)"><rect width="19" height="11" x="0" y="-11" fill="#FFF" stroke="none"/></g><text fill="#000" stroke="none" transform="matrix(1 0 0 1 558 511)"><tspan x="0" y="9" dx="0">0..1</tspan></text><g transform="matrix(1 0 0 -1 653 84)"><rect width="56" height="11" x="0" y="-11" fill="#FFF" stroke="none"/></g><text fill="#000" stroke="none" transform="matrix(1 0 0 1 653 84)"><tspan x="0" y="9" dx="0">adms:status</tspan></text><g transform="matrix(1 0 0 -1 655 101)"><rect width="53" height="11" x="0" y="-11" fill="#FFF" stroke="none"/></g><text fill="#000" stroke="none" transform="matrix(1 0 0 1 655 101)"><tspan x="0" y="9" dx="0">«optional»</tspan></text><g transform="matrix(1 0 0 -1 203 103)"><rect width="19" height="11" x="0" y="-11" fill="#FFF" stroke="none"/></g><text fill="#000" stroke="none" transform="matrix(1 0 0 1 203 103)"><tspan x="0" y="9" dx="0">0..1</tspan></text><g transform="matrix(1 0 0 -1 959 561)"><rect width="75" height="11" x="0" y="-11" fill="#FFF" stroke="none"/></g><text fill="#000" stroke="none" transform="matrix(1 0 0 1 959 561)"><tspan x="0" y="9" dx="0">dct:conformsTo</tspan></text><g transform="matrix(1 0 0 -1 970 578)"><rect width="53" height="11" x="0" y="-11" fill="#FFF" stroke="none"/></g><text fill="#000" stroke="none" transform="matrix(1 0 0 1 970 578)"><tspan x="0" y="9" dx="0">«optional»</tspan></text><g transform="matrix(1 0 0 -1 1074 543)"><rect width="17" height="11" x="0" y="-11" fill="#FFF" stroke="none"/></g><text fill="#000" stroke="none" transform="matrix(1 0 0 1 1074 543)"><tspan x="0" y="9" dx="0">0..*</tspan></text><g transform="matrix(1 0 0 -1 201 187)"><rect width="39" height="11" x="0" y="-11" fill="#FFF" stroke="none"/></g><text fill="#000" stroke="none" transform="matrix(1 0 0 1 201 187)"><tspan x="0" y="9" dx="0">dct:type</tspan></text><g transform="matrix(1 0 0 -1 179 204)"><rect width="83" height="11" x="0" y="-11" fill="#FFF" stroke="none"/></g><text fill="#000" stroke="none" transform="matrix(1 0 0 1 179 204)"><tspan x="0" y="9" dx="0">«recommended»</tspan></text><g transform="matrix(1 0 0 -1 166 168)"><rect width="19" height="11" x="0" y="-11" fill="#FFF" stroke="none"/></g><text fill="#000" stroke="none" transform="matrix(1 0 0 1 166 168)"><tspan x="0" y="9" dx="0">0..1</tspan></text><g transform="matrix(1 0 0 -1 434 34)"><rect width="39" height="11" x="0" y="-11" fill="#FFF" stroke="none"/></g><text fill="#000" stroke="none" transform="matrix(1 0 0 1 434 34)"><tspan x="0" y="9" dx="0">dct:type</tspan></text><g transform="matrix(1 0 0 -1 427 51)"><rect width="53" height="11" x="0" y="-11" fill="#FFF" stroke="none"/></g><text fill="#000" stroke="none" transform="matrix(1 0 0 1 427 51)"><tspan x="0" y="9" dx="0">«optional»</tspan></text><g transform="matrix(1 0 0 -1 153 52)"><rect width="19" height="11" x="0" y="-11" fill="#FFF" stroke="none"/></g><text fill="#000" stroke="none" transform="matrix(1 0 0 1 153 52)"><tspan x="0" y="9" dx="0">0..1</tspan></text><g transform="matrix(1 0 0 -1 516 320)"><rect width="63" height="11" x="0" y="-11" fill="#FFF" stroke="none"/></g><text fill="#000" stroke="none" transform="matrix(1 0 0 1 516 320)"><tspan x="0" y="9" dx="0">dct:publisher</tspan></text><g transform="matrix(1 0 0 -1 506 337)"><rect width="83" height="11" x="0" y="-11" fill="#FFF" stroke="none"/></g><text fill="#000" stroke="none" transform="matrix(1 0 0 1 506 337)"><tspan x="0" y="9" dx="0">«recommended»</tspan></text><g transform="matrix(1 0 0 -1 357 340)"><rect width="19" height="11" x="0" y="-11" fill="#FFF" stroke="none"/></g><text fill="#000" stroke="none" transform="matrix(1 0 0 1 357 340)"><tspan x="0" y="9" dx="0">0..1</tspan></text><g transform="matrix(1 0 0 -1 260 750)"><rect width="53" height="11" x="0" y="-11" fill="#FFF" stroke="none"/></g><text fill="#000" stroke="none" transform="matrix(1 0 0 1 260 750)"><tspan x="0" y="9" dx="0">«optional»</tspan></text><g transform="matrix(1 0 0 -1 260 763)"><rect width="56" height="11" x="0" y="-11" fill="#FFF" stroke="none"/></g><text fill="#000" stroke="none" transform="matrix(1 0 0 1 260 763)"><tspan x="0" y="9" dx="0">dct:isPartOf</tspan></text><g transform="matrix(1 0 0 -1 205 752)"><rect width="19" height="11" x="0" y="-11" fill="#FFF" stroke="none"/></g><text fill="#000" stroke="none" transform="matrix(1 0 0 1 205 752)"><tspan x="0" y="9" dx="0">0..1</tspan></text><g transform="matrix(1 0 0 -1 915 392)"><rect width="111" height="11" x="0" y="-11" fill="#FFF" stroke="none"/></g><text fill="#000" stroke="none" transform="matrix(1 0 0 1 915 392)"><tspan x="0" y="9" dx="0">«optional» dct:relation</tspan></text><g transform="matrix(1 0 0 -1 902 367)"><rect width="17" height="11" x="0" y="-11" fill="#FFF" stroke="none"/></g><text fill="#000" stroke="none" transform="matrix(1 0 0 1 902 367)"><tspan x="0" y="9" dx="0">0..*</tspan></text><g transform="matrix(1 0 0 -1 609 369)"><rect width="129" height="11" x="0" y="-11" fill="#FFF" stroke="none"/></g><text fill="#000" stroke="none" transform="matrix(1 0 0 1 609 369)"><tspan x="0" y="9" dx="0">«optional» dct:isVersionOf</tspan></text><g transform="matrix(1 0 0 -1 720 385)"><rect width="17" height="11" x="0" y="-11" fill="#FFF" stroke="none"/></g><text fill="#000" stroke="none" transform="matrix(1 0 0 1 720 385)"><tspan x="0" y="9" dx="0">0..*</tspan></text><g transform="matrix(1 0 0 -1 279 127)"><rect width="56" height="11" x="0" y="-11" fill="#FFF" stroke="none"/></g><text fill="#000" stroke="none" transform="matrix(1 0 0 1 279 127)"><tspan x="0" y="9" dx="0">adms:status</tspan></text><g transform="matrix(1 0 0 -1 266 144)"><rect width="83" height="11" x="0" y="-11" fill="#FFF" stroke="none"/></g><text fill="#000" stroke="none" transform="matrix(1 0 0 1 266 144)"><tspan x="0" y="9" dx="0">«recommended»</tspan></text><g transform="matrix(1 0 0 -1 205 146)"><rect width="19" height="11" x="0" y="-11" fill="#FFF" stroke="none"/></g><text fill="#000" stroke="none" transform="matrix(1 0 0 1 205 146)"><tspan x="0" y="9" dx="0">0..1</tspan></text><g transform="matrix(1 0 0 -1 595 660)"><rect width="50" height="11" x="0" y="-11" fill="#FFF" stroke="none"/></g><text fill="#000" stroke="none" transform="matrix(1 0 0 1 595 660)"><tspan x="0" y="9" dx="0">dct:spatial</tspan></text><g transform="matrix(1 0 0 -1 592 677)"><rect width="53" height="11" x="0" y="-11" fill="#FFF" stroke="none"/></g><text fill="#000" stroke="none" transform="matrix(1 0 0 1 592 677)"><tspan x="0" y="9" dx="0">«optional»</tspan></text><g transform="matrix(1 0 0 -1 498 753)"><rect width="17" height="11" x="0" y="-11" fill="#FFF" stroke="none"/></g><text fill="#000" stroke="none" transform="matrix(1 0 0 1 498 753)"><tspan x="0" y="9" dx="0">0..*</tspan></text><g transform="matrix(1 0 0 -1 860 742)"><rect width="85" height="11" x="0" y="-11" fill="#FFF" stroke="none"/></g><text fill="#000" stroke="none" transform="matrix(1 0 0 1 860 742)"><tspan x="0" y="9" dx="0">dcat:contactPoint</tspan></text><g transform="matrix(1 0 0 -1 866 758)"><rect width="83" height="11" x="0" y="-11" fill="#FFF" stroke="none"/></g><text fill="#000" stroke="none" transform="matrix(1 0 0 1 866 758)"><tspan x="0" y="9" dx="0">«recommended»</tspan></text><g transform="matrix(1 0 0 -1 940 783)"><rect width="17" height="11" x="0" y="-11" fill="#FFF" stroke="none"/></g><text fill="#000" stroke="none" transform="matrix(1 0 0 1 940 783)"><tspan x="0" y="9" dx="0">0..*</tspan></text><g transform="matrix(1 0 0 -1 360 651)"><rect width="59" height="11" x="0" y="-11" fill="#FFF" stroke="none"/></g><text fill="#000" stroke="none" transform="matrix(1 0 0 1 360 651)"><tspan x="0" y="9" dx="0">dcat:dataset</tspan></text><g transform="matrix(1 0 0 -1 354 665)"><rect width="65" height="11" x="0" y="-11" fill="#FFF" stroke="none"/></g><text fill="#000" stroke="none" transform="matrix(1 0 0 1 354 665)"><tspan x="0" y="9" dx="0">«mandatory»</tspan></text><g transform="matrix(1 0 0 -1 720 582)"><rect width="17" height="11" x="0" y="-11" fill="#FFF" stroke="none"/></g><text fill="#000" stroke="none" transform="matrix(1 0 0 1 720 582)"><tspan x="0" y="9" dx="0">1..*</tspan></text><g transform="matrix(1 0 0 -1 964 597)"><rect width="79" height="11" x="0" y="-11" fill="#FFF" stroke="none"/></g><text fill="#000" stroke="none" transform="matrix(1 0 0 1 964 597)"><tspan x="0" y="9" dx="0">dct:accessRights</tspan></text><g transform="matrix(1 0 0 -1 977 614)"><rect width="53" height="11" x="0" y="-11" fill="#FFF" stroke="none"/></g><text fill="#000" stroke="none" transform="matrix(1 0 0 1 977 614)"><tspan x="0" y="9" dx="0">«optional»</tspan></text><g transform="matrix(1 0 0 -1 1086 606)"><rect width="19" height="11" x="0" y="-11" fill="#FFF" stroke="none"/></g><text fill="#000" stroke="none" transform="matrix(1 0 0 1 1086 606)"><tspan x="0" y="9" dx="0">0..1</tspan></text><g transform="matrix(1 0 0 -1 610 482)"><rect width="127" height="11" x="0" y="-11" fill="#FFF" stroke="none"/></g><text fill="#000" stroke="none" transform="matrix(1 0 0 1 610 482)"><tspan x="0" y="9" dx="0">«optional» dct:hasVersion</tspan></text><g transform="matrix(1 0 0 -1 720 510)"><rect width="17" height="11" x="0" y="-11" fill="#FFF" stroke="none"/></g><text fill="#000" stroke="none" transform="matrix(1 0 0 1 720 510)"><tspan x="0" y="9" dx="0">0..*</tspan></text><g transform="matrix(1 0 0 -1 722 172)"><rect width="75" height="11" x="0" y="-11" fill="#FFF" stroke="none"/></g><text fill="#000" stroke="none" transform="matrix(1 0 0 1 722 172)"><tspan x="0" y="9" dx="0">dct:conformsTo</tspan></text><g transform="matrix(1 0 0 -1 718 189)"><rect width="83" height="11" x="0" y="-11" fill="#FFF" stroke="none"/></g><text fill="#000" stroke="none" transform="matrix(1 0 0 1 718 189)"><tspan x="0" y="9" dx="0">«recommended»</tspan></text><g transform="matrix(1 0 0 -1 805 191)"><rect width="19" height="11" x="0" y="-11" fill="#FFF" stroke="none"/></g><text fill="#000" stroke="none" transform="matrix(1 0 0 1 805 191)"><tspan x="0" y="9" dx="0">0..1</tspan></text></g></g></g></g></svg>